# xmcd
#
# Track frame offsets:
#	150
#	20892
#	38137
#	55950
#	75442
#	93007
#	107950
#	128837
#	146125
#	163737
#
# Disc length: 2455 seconds
#
# Revision: 1
# Processed by: cddbd v1.5PL3 Copyright (c) Steve Scherf et al.
# Submitted via: EasyCDDAExtractor 5.0.6
#
DISCID=8309950a
DTITLE=金佩珊 - 喜新戀舊
DYEAR=1997
DGENRE=pop
TTITLE0=一線生機
TTITLE1=相思花
TTITLE2=儂情肆虐
TTITLE3=第二最愛
TTITLE4=愛了你傷了我
TTITLE5=保鑣
TTITLE6=夕陽山外山
TTITLE7=神雕俠侶
TTITLE8=一代女皇
TTITLE9=一剪梅
EXTD=
EXTT0=
EXTT1=
EXTT2=
EXTT3=
EXTT4=
EXTT5=
EXTT6=
EXTT7=
EXTT8=
EXTT9=
PLAYORDER=
